<svg width="85" height="38" viewBox="0 0 85 38" fill="none" xmlns="http://www.w3.org/2000/svg">
<rect width="85" height="38" rx="8" fill="#06030F"/>
<path d="M17.4406 23.6664L19.3111 14.3646H15.6791L16.0797 12.3725H25.5197L25.1191 14.3646H21.4871L19.6166 23.6664H17.4406ZM27.0936 23.9017C26.2243 23.9017 25.5 23.7108 24.9207 23.3291C24.3415 22.9474 23.9352 22.4219 23.7018 21.7527C23.4747 21.0782 23.449 20.3043 23.6246 19.4311C23.8023 18.5475 24.1451 17.771 24.653 17.1018C25.162 16.4273 25.7823 15.9018 26.514 15.5253C27.2457 15.1489 28.0382 14.9606 28.8916 14.9606C29.7609 14.9606 30.4852 15.1515 31.0644 15.5332C31.649 15.9149 32.0575 16.443 32.2898 17.1175C32.5233 17.7867 32.5522 18.558 32.3766 19.4311C32.1999 20.3096 31.8571 21.086 31.3482 21.7605C30.8456 22.4298 30.2253 22.9553 29.4872 23.337C28.7555 23.7134 27.9576 23.9017 27.0936 23.9017ZM27.4942 21.9095C28.1929 21.9095 28.7591 21.6795 29.193 21.2194C29.6332 20.754 29.9264 20.1579 30.0726 19.4311C30.224 18.6782 30.1689 18.0769 29.9073 17.6273C29.6511 17.1776 29.179 16.9528 28.491 16.9528C28.0163 16.9528 27.6059 17.0573 27.2599 17.2665C26.9138 17.4756 26.6288 17.7658 26.4048 18.1371C26.1862 18.5083 26.0274 18.9397 25.9286 19.4311C25.7761 20.1893 25.828 20.7932 26.0843 21.2429C26.3469 21.6873 26.8169 21.9095 27.4942 21.9095ZM37.4769 23.9017C36.6182 23.9017 35.9403 23.7056 35.4431 23.3134C34.946 22.9213 34.6186 22.388 34.4609 21.7135C34.3085 21.039 34.3175 20.2782 34.4878 19.4311C34.6582 18.5841 34.9552 17.8233 35.3788 17.1488C35.8024 16.4743 36.3337 15.941 36.9725 15.5489C37.6114 15.1567 38.3415 14.9606 39.1628 14.9606C39.9895 14.9606 40.6706 15.1541 41.2061 15.541C41.7416 15.9279 42.1096 16.4587 42.3099 17.1332C42.5167 17.8024 42.5333 18.5684 42.3598 19.4311C42.1895 20.2782 41.8685 21.039 41.3969 21.7135C40.9306 22.388 40.3593 22.9213 39.6831 23.3134C39.007 23.7056 38.2715 23.9017 37.4769 23.9017ZM32.5111 27.431L34.9715 15.1959H36.8915L35.7244 20.9997H35.9964L34.7031 27.431H32.5111ZM37.5065 22.0037C37.9759 22.0037 38.383 21.8886 38.7279 21.6586C39.0729 21.4285 39.3562 21.12 39.578 20.7331C39.8009 20.3409 39.9602 19.907 40.0558 19.4311C40.1505 18.9606 40.162 18.5318 40.0905 18.1449C40.02 17.7527 39.8506 17.4416 39.5822 17.2116C39.3202 16.9763 38.9465 16.8586 38.4611 16.8586C38.0078 16.8586 37.6183 16.9658 37.2925 17.1802C36.972 17.3946 36.7089 17.6952 36.5031 18.0822C36.2973 18.4691 36.1429 18.9187 36.0398 19.4311C35.9368 19.9436 35.9104 20.3932 35.9606 20.7801C36.0108 21.1671 36.1583 21.4677 36.4032 21.6821C36.6534 21.8965 37.0212 22.0037 37.5065 22.0037ZM63.9722 23.6664L64.3255 21.9095H59.3175L59.7181 19.9174L64.8673 12.3725H67.3633L62.2141 19.9174H64.7261L65.2938 17.0939H67.5018L66.9341 19.9174H67.9581L67.5575 21.9095H66.5335L66.1802 23.6664H63.9722Z" fill="white"/>
<path d="M17.4406 23.6664L19.3111 14.3646H15.6791L16.0797 12.3725H25.5197L25.1191 14.3646H21.4871L19.6166 23.6664H17.4406ZM27.0936 23.9017C26.2243 23.9017 25.5 23.7108 24.9207 23.3291C24.3415 22.9474 23.9352 22.4219 23.7018 21.7527C23.4747 21.0782 23.449 20.3043 23.6246 19.4311C23.8023 18.5475 24.1451 17.771 24.653 17.1018C25.162 16.4273 25.7823 15.9018 26.514 15.5253C27.2457 15.1489 28.0382 14.9606 28.8916 14.9606C29.7609 14.9606 30.4852 15.1515 31.0644 15.5332C31.649 15.9149 32.0575 16.443 32.2898 17.1175C32.5233 17.7867 32.5522 18.558 32.3766 19.4311C32.1999 20.3096 31.8571 21.086 31.3482 21.7605C30.8456 22.4298 30.2253 22.9553 29.4872 23.337C28.7555 23.7134 27.9576 23.9017 27.0936 23.9017ZM27.4942 21.9095C28.1929 21.9095 28.7591 21.6795 29.193 21.2194C29.6332 20.754 29.9264 20.1579 30.0726 19.4311C30.224 18.6782 30.1689 18.0769 29.9073 17.6273C29.6511 17.1776 29.179 16.9528 28.491 16.9528C28.0163 16.9528 27.6059 17.0573 27.2599 17.2665C26.9138 17.4756 26.6288 17.7658 26.4048 18.1371C26.1862 18.5083 26.0274 18.9397 25.9286 19.4311C25.7761 20.1893 25.828 20.7932 26.0843 21.2429C26.3469 21.6873 26.8169 21.9095 27.4942 21.9095ZM37.4769 23.9017C36.6182 23.9017 35.9403 23.7056 35.4431 23.3134C34.946 22.9213 34.6186 22.388 34.4609 21.7135C34.3085 21.039 34.3175 20.2782 34.4878 19.4311C34.6582 18.5841 34.9552 17.8233 35.3788 17.1488C35.8024 16.4743 36.3337 15.941 36.9725 15.5489C37.6114 15.1567 38.3415 14.9606 39.1628 14.9606C39.9895 14.9606 40.6706 15.1541 41.2061 15.541C41.7416 15.9279 42.1096 16.4587 42.3099 17.1332C42.5167 17.8024 42.5333 18.5684 42.3598 19.4311C42.1895 20.2782 41.8685 21.039 41.3969 21.7135C40.9306 22.388 40.3593 22.9213 39.6831 23.3134C39.007 23.7056 38.2715 23.9017 37.4769 23.9017ZM32.5111 27.431L34.9715 15.1959H36.8915L35.7244 20.9997H35.9964L34.7031 27.431H32.5111ZM37.5065 22.0037C37.9759 22.0037 38.383 21.8886 38.7279 21.6586C39.0729 21.4285 39.3562 21.12 39.578 20.7331C39.8009 20.3409 39.9602 19.907 40.0558 19.4311C40.1505 18.9606 40.162 18.5318 40.0905 18.1449C40.02 17.7527 39.8506 17.4416 39.5822 17.2116C39.3202 16.9763 38.9465 16.8586 38.4611 16.8586C38.0078 16.8586 37.6183 16.9658 37.2925 17.1802C36.972 17.3946 36.7089 17.6952 36.5031 18.0822C36.2973 18.4691 36.1429 18.9187 36.0398 19.4311C35.9368 19.9436 35.9104 20.3932 35.9606 20.7801C36.0108 21.1671 36.1583 21.4677 36.4032 21.6821C36.6534 21.8965 37.0212 22.0037 37.5065 22.0037ZM63.9722 23.6664L64.3255 21.9095H59.3175L59.7181 19.9174L64.8673 12.3725H67.3633L62.2141 19.9174H64.7261L65.2938 17.0939H67.5018L66.9341 19.9174H67.9581L67.5575 21.9095H66.5335L66.1802 23.6664H63.9722Z" fill="url(#paint0_angular_486_654)"/>
<path d="M17.4406 23.6664L19.3111 14.3646H15.6791L16.0797 12.3725H25.5197L25.1191 14.3646H21.4871L19.6166 23.6664H17.4406ZM27.0936 23.9017C26.2243 23.9017 25.5 23.7108 24.9207 23.3291C24.3415 22.9474 23.9352 22.4219 23.7018 21.7527C23.4747 21.0782 23.449 20.3043 23.6246 19.4311C23.8023 18.5475 24.1451 17.771 24.653 17.1018C25.162 16.4273 25.7823 15.9018 26.514 15.5253C27.2457 15.1489 28.0382 14.9606 28.8916 14.9606C29.7609 14.9606 30.4852 15.1515 31.0644 15.5332C31.649 15.9149 32.0575 16.443 32.2898 17.1175C32.5233 17.7867 32.5522 18.558 32.3766 19.4311C32.1999 20.3096 31.8571 21.086 31.3482 21.7605C30.8456 22.4298 30.2253 22.9553 29.4872 23.337C28.7555 23.7134 27.9576 23.9017 27.0936 23.9017ZM27.4942 21.9095C28.1929 21.9095 28.7591 21.6795 29.193 21.2194C29.6332 20.754 29.9264 20.1579 30.0726 19.4311C30.224 18.6782 30.1689 18.0769 29.9073 17.6273C29.6511 17.1776 29.179 16.9528 28.491 16.9528C28.0163 16.9528 27.6059 17.0573 27.2599 17.2665C26.9138 17.4756 26.6288 17.7658 26.4048 18.1371C26.1862 18.5083 26.0274 18.9397 25.9286 19.4311C25.7761 20.1893 25.828 20.7932 26.0843 21.2429C26.3469 21.6873 26.8169 21.9095 27.4942 21.9095ZM37.4769 23.9017C36.6182 23.9017 35.9403 23.7056 35.4431 23.3134C34.946 22.9213 34.6186 22.388 34.4609 21.7135C34.3085 21.039 34.3175 20.2782 34.4878 19.4311C34.6582 18.5841 34.9552 17.8233 35.3788 17.1488C35.8024 16.4743 36.3337 15.941 36.9725 15.5489C37.6114 15.1567 38.3415 14.9606 39.1628 14.9606C39.9895 14.9606 40.6706 15.1541 41.2061 15.541C41.7416 15.9279 42.1096 16.4587 42.3099 17.1332C42.5167 17.8024 42.5333 18.5684 42.3598 19.4311C42.1895 20.2782 41.8685 21.039 41.3969 21.7135C40.9306 22.388 40.3593 22.9213 39.6831 23.3134C39.007 23.7056 38.2715 23.9017 37.4769 23.9017ZM32.5111 27.431L34.9715 15.1959H36.8915L35.7244 20.9997H35.9964L34.7031 27.431H32.5111ZM37.5065 22.0037C37.9759 22.0037 38.383 21.8886 38.7279 21.6586C39.0729 21.4285 39.3562 21.12 39.578 20.7331C39.8009 20.3409 39.9602 19.907 40.0558 19.4311C40.1505 18.9606 40.162 18.5318 40.0905 18.1449C40.02 17.7527 39.8506 17.4416 39.5822 17.2116C39.3202 16.9763 38.9465 16.8586 38.4611 16.8586C38.0078 16.8586 37.6183 16.9658 37.2925 17.1802C36.972 17.3946 36.7089 17.6952 36.5031 18.0822C36.2973 18.4691 36.1429 18.9187 36.0398 19.4311C35.9368 19.9436 35.9104 20.3932 35.9606 20.7801C36.0108 21.1671 36.1583 21.4677 36.4032 21.6821C36.6534 21.8965 37.0212 22.0037 37.5065 22.0037ZM63.9722 23.6664L64.3255 21.9095H59.3175L59.7181 19.9174L64.8673 12.3725H67.3633L62.2141 19.9174H64.7261L65.2938 17.0939H67.5018L66.9341 19.9174H67.9581L67.5575 21.9095H66.5335L66.1802 23.6664H63.9722Z" fill="url(#paint1_radial_486_654)" fill-opacity="0.52"/>
<path d="M17.4406 23.6664L19.3111 14.3646H15.6791L16.0797 12.3725H25.5197L25.1191 14.3646H21.4871L19.6166 23.6664H17.4406ZM27.0936 23.9017C26.2243 23.9017 25.5 23.7108 24.9207 23.3291C24.3415 22.9474 23.9352 22.4219 23.7018 21.7527C23.4747 21.0782 23.449 20.3043 23.6246 19.4311C23.8023 18.5475 24.1451 17.771 24.653 17.1018C25.162 16.4273 25.7823 15.9018 26.514 15.5253C27.2457 15.1489 28.0382 14.9606 28.8916 14.9606C29.7609 14.9606 30.4852 15.1515 31.0644 15.5332C31.649 15.9149 32.0575 16.443 32.2898 17.1175C32.5233 17.7867 32.5522 18.558 32.3766 19.4311C32.1999 20.3096 31.8571 21.086 31.3482 21.7605C30.8456 22.4298 30.2253 22.9553 29.4872 23.337C28.7555 23.7134 27.9576 23.9017 27.0936 23.9017ZM27.4942 21.9095C28.1929 21.9095 28.7591 21.6795 29.193 21.2194C29.6332 20.754 29.9264 20.1579 30.0726 19.4311C30.224 18.6782 30.1689 18.0769 29.9073 17.6273C29.6511 17.1776 29.179 16.9528 28.491 16.9528C28.0163 16.9528 27.6059 17.0573 27.2599 17.2665C26.9138 17.4756 26.6288 17.7658 26.4048 18.1371C26.1862 18.5083 26.0274 18.9397 25.9286 19.4311C25.7761 20.1893 25.828 20.7932 26.0843 21.2429C26.3469 21.6873 26.8169 21.9095 27.4942 21.9095ZM37.4769 23.9017C36.6182 23.9017 35.9403 23.7056 35.4431 23.3134C34.946 22.9213 34.6186 22.388 34.4609 21.7135C34.3085 21.039 34.3175 20.2782 34.4878 19.4311C34.6582 18.5841 34.9552 17.8233 35.3788 17.1488C35.8024 16.4743 36.3337 15.941 36.9725 15.5489C37.6114 15.1567 38.3415 14.9606 39.1628 14.9606C39.9895 14.9606 40.6706 15.1541 41.2061 15.541C41.7416 15.9279 42.1096 16.4587 42.3099 17.1332C42.5167 17.8024 42.5333 18.5684 42.3598 19.4311C42.1895 20.2782 41.8685 21.039 41.3969 21.7135C40.9306 22.388 40.3593 22.9213 39.6831 23.3134C39.007 23.7056 38.2715 23.9017 37.4769 23.9017ZM32.5111 27.431L34.9715 15.1959H36.8915L35.7244 20.9997H35.9964L34.7031 27.431H32.5111ZM37.5065 22.0037C37.9759 22.0037 38.383 21.8886 38.7279 21.6586C39.0729 21.4285 39.3562 21.12 39.578 20.7331C39.8009 20.3409 39.9602 19.907 40.0558 19.4311C40.1505 18.9606 40.162 18.5318 40.0905 18.1449C40.02 17.7527 39.8506 17.4416 39.5822 17.2116C39.3202 16.9763 38.9465 16.8586 38.4611 16.8586C38.0078 16.8586 37.6183 16.9658 37.2925 17.1802C36.972 17.3946 36.7089 17.6952 36.5031 18.0822C36.2973 18.4691 36.1429 18.9187 36.0398 19.4311C35.9368 19.9436 35.9104 20.3932 35.9606 20.7801C36.0108 21.1671 36.1583 21.4677 36.4032 21.6821C36.6534 21.8965 37.0212 22.0037 37.5065 22.0037ZM63.9722 23.6664L64.3255 21.9095H59.3175L59.7181 19.9174L64.8673 12.3725H67.3633L62.2141 19.9174H64.7261L65.2938 17.0939H67.5018L66.9341 19.9174H67.9581L67.5575 21.9095H66.5335L66.1802 23.6664H63.9722Z" fill="url(#paint2_angular_486_654)" style="mix-blend-mode:screen"/>
<path d="M57 17.4H52.0909L53.1818 11L45 20.6H49.9091L48.8182 27L57 17.4Z" fill="url(#paint3_angular_486_654)"/>
<path d="M57 17.4H52.0909L53.1818 11L45 20.6H49.9091L48.8182 27L57 17.4Z" fill="url(#paint4_radial_486_654)" fill-opacity="0.52"/>
<path d="M57 17.4H52.0909L53.1818 11L45 20.6H49.9091L48.8182 27L57 17.4Z" fill="url(#paint5_angular_486_654)" style="mix-blend-mode:screen"/>
<defs>
<radialGradient id="paint0_angular_486_654" cx="0" cy="0" r="1" gradientUnits="userSpaceOnUse" gradientTransform="translate(42.1295 17.2939) rotate(101.37) scale(10.5 25.6672)">
<stop offset="0.15625" stop-color="#D6DFE6"/>
<stop offset="0.370506" stop-color="#FAFBFC"/>
<stop offset="0.598958" stop-color="#F6D0FF"/>
<stop offset="0.865074" stop-color="#D7E0E7"/>
<stop offset="0.871776" stop-color="#F7F8F9"/>
<stop offset="0.990443" stop-color="#E8EDF1"/>
</radialGradient>
<radialGradient id="paint1_radial_486_654" cx="0" cy="0" r="1" gradientUnits="userSpaceOnUse" gradientTransform="translate(22.3042 12.8143) rotate(12.8131) scale(42.2398 22.3505)">
<stop offset="0.0760668" stop-color="#6E7CFB"/>
<stop offset="0.351413" stop-color="#FB42FF"/>
<stop offset="0.634538" stop-color="#FF42F7"/>
<stop offset="1" stop-color="#4277FF"/>
</radialGradient>
<radialGradient id="paint2_angular_486_654" cx="0" cy="0" r="1" gradientUnits="userSpaceOnUse" gradientTransform="translate(42.9392 17.2939) rotate(101.37) scale(10.5 26.461)">
<stop offset="0.046875" stop-color="white" stop-opacity="0.72"/>
<stop offset="0.244792"/>
<stop offset="0.421875" stop-color="white" stop-opacity="0.72"/>
<stop offset="0.625"/>
<stop offset="0.802083" stop-color="white" stop-opacity="0.72"/>
<stop offset="1"/>
</radialGradient>
<radialGradient id="paint3_angular_486_654" cx="0" cy="0" r="1" gradientUnits="userSpaceOnUse" gradientTransform="translate(50.82 19) rotate(90) scale(8 5.82)">
<stop offset="0.15625" stop-color="#D6DFE6"/>
<stop offset="0.370506" stop-color="#FAFBFC"/>
<stop offset="0.598958" stop-color="#F6D0FF"/>
<stop offset="0.865074" stop-color="#D7E0E7"/>
<stop offset="0.871776" stop-color="#F7F8F9"/>
<stop offset="0.990443" stop-color="#E8EDF1"/>
</radialGradient>
<radialGradient id="paint4_radial_486_654" cx="0" cy="0" r="1" gradientUnits="userSpaceOnUse" gradientTransform="translate(46.2126 15.5186) rotate(37.2471) scale(12.0281 13.5599)">
<stop offset="0.0760668" stop-color="#6E7CFB"/>
<stop offset="0.351413" stop-color="#FB42FF"/>
<stop offset="0.634538" stop-color="#FF42F7"/>
<stop offset="1" stop-color="#4277FF"/>
</radialGradient>
<radialGradient id="paint5_angular_486_654" cx="0" cy="0" r="1" gradientUnits="userSpaceOnUse" gradientTransform="translate(51 19) rotate(90) scale(8 6)">
<stop offset="0.046875" stop-color="white" stop-opacity="0.72"/>
<stop offset="0.244792"/>
<stop offset="0.421875" stop-color="white" stop-opacity="0.72"/>
<stop offset="0.625"/>
<stop offset="0.802083" stop-color="white" stop-opacity="0.72"/>
<stop offset="1"/>
</radialGradient>
</defs>
</svg>
