<svg width="80" height="25" viewBox="0 0 80 25" fill="none" xmlns="http://www.w3.org/2000/svg">
<path d="M7.984 24V4.112H0.32V0.959999H18.992V4.112H11.328V24H7.984ZM26.494 24.48C24.766 24.48 23.2673 24.0907 21.998 23.312C20.7287 22.5333 19.7473 21.4613 19.054 20.096C18.3713 18.72 18.03 17.136 18.03 15.344C18.03 13.5413 18.382 11.9573 19.086 10.592C19.79 9.216 20.7767 8.14933 22.046 7.392C23.3153 6.624 24.798 6.24 26.494 6.24C28.222 6.24 29.7207 6.62933 30.99 7.408C32.2593 8.18667 33.2407 9.25867 33.934 10.624C34.6273 11.9893 34.974 13.5627 34.974 15.344C34.974 17.1467 34.622 18.736 33.918 20.112C33.2247 21.4773 32.2433 22.5493 30.974 23.328C29.7047 24.096 28.2113 24.48 26.494 24.48ZM26.494 21.328C28.1473 21.328 29.3793 20.7733 30.19 19.664C31.0113 18.544 31.422 17.104 31.422 15.344C31.422 13.5413 31.006 12.1013 30.174 11.024C29.3527 9.936 28.126 9.392 26.494 9.392C25.374 9.392 24.4513 9.648 23.726 10.16C23.0007 10.6613 22.462 11.36 22.11 12.256C21.758 13.1413 21.582 14.1707 21.582 15.344C21.582 17.1573 21.998 18.608 22.83 19.696C23.662 20.784 24.8833 21.328 26.494 21.328ZM38.474 24V6.72H53.05V24H49.706V9.872H41.818V24H38.474ZM73.6875 24V19.984H63.2875V16.816L70.7755 0.959999H74.5995L67.1115 16.816H73.6875V10.576H77.0795V16.816H79.3675V19.984H77.0795V24H73.6875Z" fill="white"/>
<path d="M7.984 24V4.112H0.32V0.959999H18.992V4.112H11.328V24H7.984ZM26.494 24.48C24.766 24.48 23.2673 24.0907 21.998 23.312C20.7287 22.5333 19.7473 21.4613 19.054 20.096C18.3713 18.72 18.03 17.136 18.03 15.344C18.03 13.5413 18.382 11.9573 19.086 10.592C19.79 9.216 20.7767 8.14933 22.046 7.392C23.3153 6.624 24.798 6.24 26.494 6.24C28.222 6.24 29.7207 6.62933 30.99 7.408C32.2593 8.18667 33.2407 9.25867 33.934 10.624C34.6273 11.9893 34.974 13.5627 34.974 15.344C34.974 17.1467 34.622 18.736 33.918 20.112C33.2247 21.4773 32.2433 22.5493 30.974 23.328C29.7047 24.096 28.2113 24.48 26.494 24.48ZM26.494 21.328C28.1473 21.328 29.3793 20.7733 30.19 19.664C31.0113 18.544 31.422 17.104 31.422 15.344C31.422 13.5413 31.006 12.1013 30.174 11.024C29.3527 9.936 28.126 9.392 26.494 9.392C25.374 9.392 24.4513 9.648 23.726 10.16C23.0007 10.6613 22.462 11.36 22.11 12.256C21.758 13.1413 21.582 14.1707 21.582 15.344C21.582 17.1573 21.998 18.608 22.83 19.696C23.662 20.784 24.8833 21.328 26.494 21.328ZM38.474 24V6.72H53.05V24H49.706V9.872H41.818V24H38.474ZM73.6875 24V19.984H63.2875V16.816L70.7755 0.959999H74.5995L67.1115 16.816H73.6875V10.576H77.0795V16.816H79.3675V19.984H77.0795V24H73.6875Z" fill="url(#paint0_angular_279_850)"/>
<path d="M7.984 24V4.112H0.32V0.959999H18.992V4.112H11.328V24H7.984ZM26.494 24.48C24.766 24.48 23.2673 24.0907 21.998 23.312C20.7287 22.5333 19.7473 21.4613 19.054 20.096C18.3713 18.72 18.03 17.136 18.03 15.344C18.03 13.5413 18.382 11.9573 19.086 10.592C19.79 9.216 20.7767 8.14933 22.046 7.392C23.3153 6.624 24.798 6.24 26.494 6.24C28.222 6.24 29.7207 6.62933 30.99 7.408C32.2593 8.18667 33.2407 9.25867 33.934 10.624C34.6273 11.9893 34.974 13.5627 34.974 15.344C34.974 17.1467 34.622 18.736 33.918 20.112C33.2247 21.4773 32.2433 22.5493 30.974 23.328C29.7047 24.096 28.2113 24.48 26.494 24.48ZM26.494 21.328C28.1473 21.328 29.3793 20.7733 30.19 19.664C31.0113 18.544 31.422 17.104 31.422 15.344C31.422 13.5413 31.006 12.1013 30.174 11.024C29.3527 9.936 28.126 9.392 26.494 9.392C25.374 9.392 24.4513 9.648 23.726 10.16C23.0007 10.6613 22.462 11.36 22.11 12.256C21.758 13.1413 21.582 14.1707 21.582 15.344C21.582 17.1573 21.998 18.608 22.83 19.696C23.662 20.784 24.8833 21.328 26.494 21.328ZM38.474 24V6.72H53.05V24H49.706V9.872H41.818V24H38.474ZM73.6875 24V19.984H63.2875V16.816L70.7755 0.959999H74.5995L67.1115 16.816H73.6875V10.576H77.0795V16.816H79.3675V19.984H77.0795V24H73.6875Z" fill="url(#paint1_radial_279_850)" fill-opacity="0.52"/>
<path d="M7.984 24V4.112H0.32V0.959999H18.992V4.112H11.328V24H7.984ZM26.494 24.48C24.766 24.48 23.2673 24.0907 21.998 23.312C20.7287 22.5333 19.7473 21.4613 19.054 20.096C18.3713 18.72 18.03 17.136 18.03 15.344C18.03 13.5413 18.382 11.9573 19.086 10.592C19.79 9.216 20.7767 8.14933 22.046 7.392C23.3153 6.624 24.798 6.24 26.494 6.24C28.222 6.24 29.7207 6.62933 30.99 7.408C32.2593 8.18667 33.2407 9.25867 33.934 10.624C34.6273 11.9893 34.974 13.5627 34.974 15.344C34.974 17.1467 34.622 18.736 33.918 20.112C33.2247 21.4773 32.2433 22.5493 30.974 23.328C29.7047 24.096 28.2113 24.48 26.494 24.48ZM26.494 21.328C28.1473 21.328 29.3793 20.7733 30.19 19.664C31.0113 18.544 31.422 17.104 31.422 15.344C31.422 13.5413 31.006 12.1013 30.174 11.024C29.3527 9.936 28.126 9.392 26.494 9.392C25.374 9.392 24.4513 9.648 23.726 10.16C23.0007 10.6613 22.462 11.36 22.11 12.256C21.758 13.1413 21.582 14.1707 21.582 15.344C21.582 17.1573 21.998 18.608 22.83 19.696C23.662 20.784 24.8833 21.328 26.494 21.328ZM38.474 24V6.72H53.05V24H49.706V9.872H41.818V24H38.474ZM73.6875 24V19.984H63.2875V16.816L70.7755 0.959999H74.5995L67.1115 16.816H73.6875V10.576H77.0795V16.816H79.3675V19.984H77.0795V24H73.6875Z" fill="url(#paint2_angular_279_850)" style="mix-blend-mode:screen"/>
<defs>
<radialGradient id="paint0_angular_279_850" cx="0" cy="0" r="1" gradientUnits="userSpaceOnUse" gradientTransform="translate(40.0575 12) rotate(90) scale(21 38.5575)">
<stop offset="0.15625" stop-color="#D6DFE6"/>
<stop offset="0.370506" stop-color="#FAFBFC"/>
<stop offset="0.598958" stop-color="#F6D0FF"/>
<stop offset="0.865074" stop-color="#D7E0E7"/>
<stop offset="0.871776" stop-color="#F7F8F9"/>
<stop offset="0.990443" stop-color="#E8EDF1"/>
</radialGradient>
<radialGradient id="paint1_radial_279_850" cx="0" cy="0" r="1" gradientUnits="userSpaceOnUse" gradientTransform="translate(9.53358 2.86145) rotate(16.7657) scale(66.2489 42.8144)">
<stop offset="0.0760668" stop-color="#6E7CFB"/>
<stop offset="0.351413" stop-color="#FB42FF"/>
<stop offset="0.634538" stop-color="#FF42F7"/>
<stop offset="1" stop-color="#4277FF"/>
</radialGradient>
<radialGradient id="paint2_angular_279_850" cx="0" cy="0" r="1" gradientUnits="userSpaceOnUse" gradientTransform="translate(41.25 12) rotate(90) scale(21 39.75)">
<stop offset="0.046875" stop-color="white" stop-opacity="0.72"/>
<stop offset="0.244792"/>
<stop offset="0.421875" stop-color="white" stop-opacity="0.72"/>
<stop offset="0.625"/>
<stop offset="0.802083" stop-color="white" stop-opacity="0.72"/>
<stop offset="1"/>
</radialGradient>
</defs>
</svg>
